<svg  version="1.2" xmlns="http://www.w3.org/2000/svg"  viewBox="0 35 550 400"><g fill="#000000"  stroke="none" stroke-width="1" stroke-linecap="butt" stroke-linejoin="miter" stroke-miterlimit="10" stroke-dasharray="" stroke-dashoffset="0" font-family="none"  font-size="none" ><g><g><path d="M188.33903,200.00551c-4.55848,0 -8.90498,1.86279 -12.00962,4.97443c-3.30962,3.30962 -4.96743,7.65612 -4.96743,12.2146v35.61192c0,4.55148 1.65081,8.89798 4.96743,12.2146c3.10464,3.10464 7.45115,4.96743 12.00962,4.96743c4.55848,0 8.90498,-1.86279 12.00962,-4.96743c3.30862,-3.30962 4.96743,-7.65612 4.96743,-12.2146v-6.83022h-10.76777v6.83722c0,1.65881 -0.62093,3.31662 -1.86279,4.55848c-1.02988,1.03788 -2.68869,1.86279 -4.3465,1.86279c-1.65081,0 -3.30962,-0.82491 -4.3465,-1.86279c-1.24186,-1.24186 -1.86279,-2.89967 -1.86279,-4.55848v-35.61891c0,-1.65881 0.62093,-3.31662 1.86279,-4.55848c1.02988,-1.03688 2.68769,-1.86279 4.3465,-1.86279c1.65081,0 3.30962,0.8259 4.3465,1.86279c1.24186,1.24186 1.86279,2.89967 1.86279,4.55848v6.82322h10.76777v-6.83022c0,-4.55148 -1.65081,-8.89798 -4.96743,-12.2146c-3.10464,-3.10464 -7.45115,-4.96743 -12.00962,-4.96743z"  fill-rule="nonzero" fill="#ffffff"/><path d="M231.03913,225.68257l5.38438,20.71062h-10.97274zM239.74013,258.81177l2.89967,11.18372h11.18472l-18.43089,-69.98997h-8.90498l-18.43089,69.98997h11.18372l2.90067,-11.18372z"  fill-rule="nonzero" fill="#ffffff" /><path d="M282.88718,238.73007c1.65081,-0.8329 3.30962,-1.86279 4.76345,-3.31662c3.10464,-3.10464 4.96743,-7.45915 4.96743,-11.80565v-6.62524c0,-4.55848 -1.86279,-8.90498 -4.96743,-12.00962c-3.30962,-3.10464 -7.45115,-4.96743 -12.00962,-4.96743h-17.18903v69.98997h10.76777v-29.6146h2.69569l11.59267,29.6146h11.59367zM269.21975,210.77328h6.42126c1.65781,0 3.10464,0.8259 4.3465,1.86279c1.03688,1.24186 1.65781,2.68869 1.65781,4.3465v6.63324c0,1.65781 -0.62093,3.10464 -1.65781,4.14152c-1.24186,1.24186 -2.68869,1.86279 -4.3465,1.86279h-6.42126z"  fill-rule="nonzero" fill="#ffffff"/><path d="M307.87732,269.99449v-9.72988h-9.72988v9.72988z"  fill-rule="nonzero" fill="#ffffff"/><path d="M324.81337,240.38088h6.62524c4.3545,0 8.701,-1.65081 11.80565,-4.96743c3.10464,-3.10464 4.96743,-7.45915 4.96743,-11.80565v-6.62524c0,-4.55848 -1.86279,-8.90498 -4.96743,-12.00962c-3.10464,-3.10464 -7.45915,-4.96743 -11.80565,-4.96743h-17.393v69.99697h10.76777zM331.43861,210.77328c1.44683,0 3.10464,0.8259 4.14253,1.86279c1.24186,1.24186 1.86279,2.68869 1.86279,4.3465v6.63324c0,1.65781 -0.62093,3.10464 -1.86279,4.14152c-1.03788,1.24186 -2.69569,1.86279 -4.14253,1.86279h-6.62524v-18.84684z"  fill-rule="nonzero" fill="#ffffff"/><path d="M365.02476,204.76797v-4.76345h-11.18372v69.98997h53.42187v-11.18372h-42.24515c0.007,-18.01393 0.007,-36.02887 0.007,-54.0428zM384.07658,243.90148h9.52591l2.27974,9.10896h11.38769l-14.07639,-53.01292h-8.7l-14.07738,53.01292h11.18372zM388.84003,220.50316l2.48371,12.83453h-4.96743z"  fill-rule="nonzero" fill="#ffffff"/><path d="M429.41137,200.00551c-4.55848,0 -8.90498,1.86279 -12.00962,4.97443c-3.30962,3.30962 -4.96743,7.65612 -4.96743,12.2146v35.61192c0,4.55148 1.65081,8.89798 4.96743,12.2146c3.10464,3.10464 7.45115,4.96743 12.00962,4.96743c4.55848,0 8.90498,-1.86279 12.00962,-4.96743c3.30862,-3.30962 4.96743,-7.65612 4.96743,-12.2146v-6.83022h-10.76777v6.83722c0,1.65881 -0.62093,3.31662 -1.86279,4.55848c-1.02988,1.03788 -2.68869,1.86279 -4.3465,1.86279c-1.65081,0 -3.30962,-0.82491 -4.3465,-1.86279c-1.24186,-1.24186 -1.86279,-2.89967 -1.86279,-4.55848v-35.61891c0,-1.65881 0.62093,-3.31662 1.86279,-4.55848c1.02988,-1.03688 2.68769,-1.86279 4.3465,-1.86279c1.65081,0 3.30962,0.8259 4.3465,1.86279c1.24186,1.24186 1.86279,2.89967 1.86279,4.55848v6.82322h10.76777v-6.83022c0,-4.55148 -1.65081,-8.89798 -4.96743,-12.2146c-3.10464,-3.10464 -7.45115,-4.96743 -12.00962,-4.96743z"  fill-rule="nonzero" fill="#ffffff"/><path d="M485,210.77328v-10.76777h-31.47039v69.98997h31.47039v-10.76777h-20.70263v-18.83984h15.53022v-10.76777h-15.53022v-18.84684z"  fill-rule="nonzero" fill="#ffffff"/></g></g></g></svg>