<svg version="1.2" xmlns="http://www.w3.org/2000/svg" viewBox="0 0 341 93">
	<title>logo-text-svg</title>
	<style>
		.s0 { fill: #ffffff } 
	</style>
	<g id="Layer">
		<g id="Layer">
			<g id="Layer">
				<path id="Layer" class="s0" d="m32.3 11c-4.5 0-8.9 1.9-12 5-3.3 3.3-4.9 7.6-4.9 12.2v35.6c0 4.6 1.6 8.9 4.9 12.2 3.1 3.1 7.5 5 12 5 4.6 0 8.9-1.9 12-5 3.4-3.3 5-7.6 5-12.2v-6.8h-10.8v6.8c0 1.7-0.6 3.3-1.8 4.6-1 1-2.7 1.8-4.4 1.8-1.6 0-3.3-0.8-4.3-1.8-1.2-1.3-1.9-2.9-1.9-4.6v-35.6c0-1.7 0.7-3.3 1.9-4.6 1-1 2.7-1.8 4.3-1.8 1.7 0 3.3 0.8 4.4 1.8 1.2 1.3 1.8 2.9 1.8 4.6v6.8h10.8v-6.8c0-4.6-1.6-8.9-5-12.2-3.1-3.1-7.4-5-12-5z"/>
				<path id="Layer" fill-rule="evenodd" class="s0" d="m66.1 69.8l-2.9 11.2h-11.1l18.4-70h8.9l18.4 70h-11.2l-2.9-11.2zm3.3-12.4h11l-5.4-20.7z"/>
				<path id="Layer" fill-rule="evenodd" class="s0" d="m139.1 81h-11.6l-11.6-29.6h-2.7v29.6h-10.7v-70h17.1c4.6 0 8.7 1.9 12.1 5 3.1 3.1 4.9 7.4 4.9 12v6.6c0 4.4-1.8 8.7-4.9 11.8-1.5 1.5-3.2 2.5-4.8 3.3zm-25.9-40.3h6.4q2.5 0 4.4-1.9c1-1 1.6-2.5 1.6-4.1v-6.7c0-1.6-0.6-3.1-1.6-4.3-1.3-1.1-2.7-1.9-4.4-1.9h-6.4z"/>
				<path id="Layer" class="s0" d="m151.9 81v-9.7h-9.8v9.7z"/>
				<path id="Layer" fill-rule="evenodd" class="s0" d="m168.8 81h-10.8v-70h17.4c4.4 0 8.7 1.9 11.8 5 3.1 3.1 5 7.4 5 12v6.6c0 4.4-1.9 8.7-5 11.8-3.1 3.3-7.4 5-11.8 5h-6.6zm0-59.2v18.8h6.6c1.5 0 3.1-0.6 4.2-1.9 1.2-1 1.8-2.4 1.8-4.1v-6.6q0-2.5-1.8-4.4c-1.1-1-2.7-1.8-4.2-1.8z"/>
				<path id="Layer" fill-rule="evenodd" class="s0" d="m209 69.8h42.3v11.2h-53.5v-70h11.2v4.8q0 27 0 54zm16.6-5.8h-11.2l14.1-53h8.7l14.1 53h-11.4l-2.3-9.1h-9.5zm4.7-19.7h5l-2.5-12.8z"/>
				<path id="Layer" class="s0" d="m273.4 11c-4.5 0-8.9 1.9-12 5-3.3 3.3-5 7.6-5 12.2v35.6c0 4.6 1.7 8.9 5 12.2 3.1 3.1 7.5 5 12 5 4.6 0 8.9-1.9 12-5 3.3-3.3 5-7.6 5-12.2v-6.8h-10.8v6.8c0 1.7-0.6 3.3-1.8 4.6-1.1 1-2.7 1.8-4.4 1.8-1.6 0-3.3-0.8-4.3-1.8-1.3-1.3-1.9-2.9-1.9-4.6v-35.6c0-1.7 0.6-3.3 1.9-4.6 1-1 2.7-1.8 4.3-1.8 1.7 0 3.3 0.8 4.4 1.8 1.2 1.3 1.8 2.9 1.8 4.6v6.8h10.8v-6.8c0-4.6-1.7-8.9-5-12.2-3.1-3.1-7.4-5-12-5z"/>
				<path id="Layer" class="s0" d="m329 21.8v-10.8h-31.5v70h31.5v-10.8h-20.7v-18.8h15.5v-10.8h-15.5v-18.8z"/>
			</g>
		</g>
	</g>
</svg>