<?xml version="1.0" standalone="no"?>
<!DOCTYPE svg PUBLIC "-//W3C//DTD SVG 20010904//EN"
 "http://www.w3.org/TR/2001/REC-SVG-20010904/DTD/svg10.dtd">
<svg version="1.0" xmlns="http://www.w3.org/2000/svg"
 width="148.000000pt" height="148.000000pt" viewBox="0 0 148.000000 148.000000"
 preserveAspectRatio="xMidYMid meet">
<metadata>
Created by potrace 1.14, written by Peter Selinger 2001-2017
</metadata>
<g transform="translate(0.000000,148.000000) scale(0.100000,-0.100000)"
fill="#000000" stroke="none">
<path d="M157 1182 c-154 -154 -158 -160 -155 -197 l3 -38 180 180 c230 230
217 213 169 213 -37 0 -47 -8 -197 -158z"/>
<path d="M1091 1335 c26 -29 382 -385 385 -385 2 0 4 17 4 38 0 35 -10 47
-158 195 -149 149 -159 157 -196 157 -22 0 -37 -2 -35 -5z"/>
<path d="M228 1101 l-187 -188 21 -21 21 -21 191 190 c160 160 188 193 180
207 -6 9 -17 18 -25 19 -8 1 -98 -83 -201 -186z"/>
<path d="M1032 1278 c-7 -7 -12 -16 -12 -21 0 -6 85 -94 188 -198 l189 -188
20 21 21 20 -187 189 c-103 104 -192 189 -197 189 -6 0 -15 -5 -22 -12z"/>
<path d="M312 1027 l-192 -192 78 -78 c47 -47 89 -80 105 -83 25 -4 27 -2 27
28 0 29 17 50 138 171 107 106 143 137 164 137 29 0 43 23 29 48 -5 9 -43 50
-83 89 l-73 73 -193 -193z m129 -26 c36 -46 1 -120 -57 -121 -34 0 -74 37 -74
70 0 43 10 61 43 75 38 16 62 9 88 -24z"/>
<path d="M371 976 c-14 -16 -9 -46 7 -46 5 0 15 7 22 16 11 12 11 18 -2 30
-13 13 -16 13 -27 0z"/>
<path d="M894 1137 c-44 -45 -80 -88 -79 -94 2 -7 3 -19 4 -27 1 -9 10 -12 27
-8 23 4 44 -13 165 -134 118 -118 139 -143 139 -169 0 -26 4 -31 25 -31 17 0
48 23 105 81 l81 81 -191 189 c-105 105 -192 191 -193 192 -2 1 -39 -35 -83
-80z m256 -127 c25 -25 26 -81 2 -103 -48 -44 -116 -24 -128 38 -13 68 77 114
126 65z"/>
<path d="M1076 971 c-10 -16 5 -42 23 -39 21 4 21 42 -1 46 -9 2 -19 -1 -22
-7z"/>
<path d="M537 873 c-16 -17 -12 -22 75 -110 88 -88 92 -94 75 -110 -16 -17
-22 -13 -110 75 -93 92 -93 93 -112 72 -10 -11 -16 -22 -14 -25 2 -2 94 -94
203 -205 180 -180 200 -198 212 -182 7 9 14 21 14 27 0 5 -41 50 -90 100 -84
85 -89 92 -76 110 14 19 19 16 110 -74 92 -92 96 -94 122 -82 l28 12 -205 205
c-112 112 -206 204 -209 204 -3 0 -13 -8 -23 -17z"/>
<path d="M845 820 c-68 -69 -69 -69 -50 -90 l19 -21 73 73 c68 68 72 73 56 90
-9 10 -19 18 -22 18 -4 0 -38 -31 -76 -70z"/>
<path d="M922 747 c-72 -72 -73 -73 -53 -91 20 -18 21 -18 53 10 18 16 51 48
72 72 39 43 39 43 20 62 -19 20 -20 19 -92 -53z"/>
<path d="M545 520 l-38 -39 27 -12 c24 -11 29 -10 56 16 17 16 30 33 30 38 0
8 -25 37 -32 37 -2 0 -21 -18 -43 -40z"/>
<path d="M629 454 c-30 -31 -31 -36 -20 -61 l12 -27 41 41 40 41 -20 20 -20
20 -33 -34z"/>
<path d="M392 441 c-38 -11 -90 -59 -102 -96 -25 -75 8 -153 78 -189 123 -64
260 71 203 200 -28 63 -113 104 -179 85z m113 -78 c24 -25 30 -45 25 -88 -3
-27 -5 -28 -30 -15 -13 7 -19 17 -16 26 8 20 -38 66 -58 58 -11 -4 -19 2 -25
17 -6 18 -5 25 7 30 27 10 71 -3 97 -28z m-122 -62 c-6 -23 20 -54 47 -56 13
-1 29 -9 34 -19 24 -38 -56 -45 -97 -8 -27 24 -39 60 -32 93 6 25 9 27 29 17
15 -6 22 -16 19 -27z"/>
<path d="M997 435 c-51 -17 -67 -33 -90 -84 -57 -130 97 -267 213 -188 56 38
75 72 74 133 -1 106 -96 174 -197 139z m84 -68 c-4 -11 -19 -22 -32 -24 -29
-4 -60 -38 -53 -58 3 -7 -4 -19 -16 -25 -26 -14 -27 -13 -33 27 -8 48 27 91
83 103 41 10 60 1 51 -23z m64 -98 c-11 -50 -76 -89 -124 -74 -17 5 -18 10 -9
29 7 16 16 22 28 19 22 -6 64 33 56 52 -3 8 5 21 17 30 20 14 22 14 30 -7 4
-12 5 -34 2 -49z"/>
</g>
</svg>
